<svg xmlns="http://www.w3.org/2000/svg" width="512" height="512" viewBox="0 0 512 512">
  <rect width="512" height="512" rx="112.64" fill="#0a0a0a"/>
  <!-- honeycomb background dots -->
  <circle cx="92.16" cy="92.16" r="20.48" fill="rgba(245,200,66,.15)"/>
  <circle cx="419.84" cy="92.16" r="20.48" fill="rgba(245,200,66,.15)"/>
  <circle cx="92.16" cy="419.84" r="20.48" fill="rgba(245,200,66,.15)"/>
  <circle cx="419.84" cy="419.84" r="20.48" fill="rgba(245,200,66,.15)"/>
  <!-- bee body -->
  <ellipse cx="256.0" cy="317.44" rx="97.28" ry="122.88" fill="white"/>
  <rect x="158.72" y="281.6" width="194.56" height="35.84" rx="10.24" fill="#f5c842"/>
  <rect x="158.72" y="332.8" width="194.56" height="30.72" rx="10.24" fill="#f5c842" opacity=".7"/>
  <!-- bee head -->
  <circle cx="256.0" cy="174.08" r="76.8" fill="white"/>
  <!-- eyes -->
  <circle cx="222.72" cy="163.84" r="20.48" fill="#0a0a0a"/>
  <circle cx="289.28" cy="163.84" r="20.48" fill="#0a0a0a"/>
  <circle cx="225.28" cy="161.28" r="10.24" fill="white"/>
  <circle cx="294.4" cy="161.28" r="10.24" fill="white"/>
  <!-- smile -->
  <path d="M 225.28 194.56 Q 256.0 220.16 286.72 194.56" stroke="#0a0a0a" stroke-width="10.24" stroke-linecap="round" fill="none"/>
  <!-- wings -->
  <ellipse cx="133.12" cy="245.76" rx="66.56" ry="33.28" fill="rgba(245,200,66,.6)" transform="rotate(-28 133.12 245.76)"/>
  <ellipse cx="378.88" cy="245.76" rx="66.56" ry="33.28" fill="rgba(245,200,66,.6)" transform="rotate(28 378.88 245.76)"/>
  <!-- crown/antennae -->
  <ellipse cx="256.0" cy="107.52" rx="97.28" ry="23.04" fill="#f5c842"/>
  <path d="M 168.96 107.52 Q 174.08 51.2 256.0 51.2 Q 337.92 51.2 343.04 107.52 Z" fill="#f5c842"/>
  <!-- stinger -->
  <polygon points="256.0,450.56 240.64,491.52 271.36,491.52" fill="white"/>
</svg>