<svg xmlns="http://www.w3.org/2000/svg" width="96" height="96" viewBox="0 0 96 96">
  <rect width="96" height="96" rx="21.12" fill="#0a0a0a"/>
  <!-- honeycomb background dots -->
  <circle cx="17.28" cy="17.28" r="3.84" fill="rgba(245,200,66,.15)"/>
  <circle cx="78.72" cy="17.28" r="3.84" fill="rgba(245,200,66,.15)"/>
  <circle cx="17.28" cy="78.72" r="3.84" fill="rgba(245,200,66,.15)"/>
  <circle cx="78.72" cy="78.72" r="3.84" fill="rgba(245,200,66,.15)"/>
  <!-- bee body -->
  <ellipse cx="48.0" cy="59.519999999999996" rx="18.240000000000002" ry="23.04" fill="white"/>
  <rect x="29.759999999999998" y="52.800000000000004" width="36.480000000000004" height="6.720000000000001" rx="1.92" fill="#f5c842"/>
  <rect x="29.759999999999998" y="62.400000000000006" width="36.480000000000004" height="5.76" rx="1.92" fill="#f5c842" opacity=".7"/>
  <!-- bee head -->
  <circle cx="48.0" cy="32.64" r="14.399999999999999" fill="white"/>
  <!-- eyes -->
  <circle cx="41.76" cy="30.72" r="3.84" fill="#0a0a0a"/>
  <circle cx="54.239999999999995" cy="30.72" r="3.84" fill="#0a0a0a"/>
  <circle cx="42.24" cy="30.240000000000002" r="1.92" fill="white"/>
  <circle cx="55.199999999999996" cy="30.240000000000002" r="1.92" fill="white"/>
  <!-- smile -->
  <path d="M 42.24 36.480000000000004 Q 48.0 41.28 53.760000000000005 36.480000000000004" stroke="#0a0a0a" stroke-width="1.92" stroke-linecap="round" fill="none"/>
  <!-- wings -->
  <ellipse cx="24.96" cy="46.08" rx="12.48" ry="6.24" fill="rgba(245,200,66,.6)" transform="rotate(-28 24.96 46.08)"/>
  <ellipse cx="71.03999999999999" cy="46.08" rx="12.48" ry="6.24" fill="rgba(245,200,66,.6)" transform="rotate(28 71.03999999999999 46.08)"/>
  <!-- crown/antennae -->
  <ellipse cx="48.0" cy="20.16" rx="18.240000000000002" ry="4.32" fill="#f5c842"/>
  <path d="M 31.68 20.16 Q 32.64 9.600000000000001 48.0 9.600000000000001 Q 63.36 9.600000000000001 64.32000000000001 20.16 Z" fill="#f5c842"/>
  <!-- stinger -->
  <polygon points="48.0,84.48 45.12,92.16 50.88,92.16" fill="white"/>
</svg>